# xmcd CD database file
#
# Track frame offsets:
#	150
#	24630
#	43583
#	61096
#	87573
#	109551
#	128377
#	146906
#	171036
#	195416
#	215751
#	242492
#	264903
#	283957
#	310573
#
# Disc length: 4486 seconds
#
# Revision: 0
# Processed by: cddbd v1.5.2PL0 Copyright (c) Steve Scherf et al.
# Submitted via: CDex 1.51
#
DISCID=ce11840f
DTITLE=vari - Salsa Sensual Caleta  disk 2
DYEAR=2010
DGENRE=Salsa
TTITLE0=Que sera de mi - Mario Ortis y su orq.
TTITLE1=Si me necesitas - Balbino
TTITLE2=Ay que Amor - La inmensidad
TTITLE3=Como Tu - Tito Allen
TTITLE4=Motorizame - Hector Tricoche
TTITLE5=A Pesar del tiempo - Mickey Taveras
TTITLE6=Tu amigo o tu amante - Orq. la sambrosura
TTITLE7=Todo me huele a ti - Ricky
TTITLE8=El Amor - Alex Leon y los leones de la salsa
TTITLE9=La era de la sinceridad - Amilkar Boscan
TTITLE10=Noche de Boda -  Raphy Leavit
TTITLE11=Si tuviera tus ojos - Edgar joel
TTITLE12=Suspiros de amante - Max Torres
TTITLE13=Amor Imposible - La solucion
TTITLE14=Llego el final - La Misma gente
EXTD=YEAR: 2010
EXTT0=
EXTT1=
EXTT2=
EXTT3=
EXTT4=
EXTT5=
EXTT6=
EXTT7=
EXTT8=
EXTT9=
EXTT10=
EXTT11=
EXTT12=
EXTT13=
EXTT14=
PLAYORDER=
